name processed_emg_signals
nRows=30
nColumns=7
 
endheader
time	LGLTMED	LRF	LADDLONG	LBF	LTA	LGM
3.2251999999999974	0.4595345053145961	0.6519913666970777	0.992789095940394	0.4398777013951411	0.8567199268667418	0.6042776327809265
3.2351999999999976	0.4625707599068812	0.6526517670249131	0.9914922096977384	0.4400909267884293	0.856891577219272	0.6056602100476579
3.2451999999999974	0.4656359957211819	0.6533106168197245	0.9901048598786176	0.4402979985213817	0.857033730645208	0.6070415005939515
3.2551999999999977	0.4687272612771979	0.6539676632429593	0.988631254757074	0.4404988257618032	0.8571451160263713	0.6084202721137955
3.2651999999999974	0.4718415543150239	0.6546226333715707	0.9870756919980817	0.440693292271353	0.8572245845070964	0.6097952731904736
3.2751999999999977	0.4749758278155488	0.6552752357415665	0.98544254831306	0.4408812576866681	0.8572711122718184	0.6111652358754242
3.2851999999999975	0.478126996203531	0.6559251619325831	0.9837362690339974	0.4410625589559784	0.8572838027467692	0.6125288784721445
3.2951999999999977	0.481291941720245	0.6565720881834343	0.98196135763092	0.4412370119231928	0.8572618882387673	0.6138849085189761
3.3051999999999975	0.4844675209516396	0.6572156770287699	0.9801223651947866	0.4414044130508057	0.8572047310260589	0.6152320259628568
3.3151999999999977	0.4876505714970289	0.65785557894793	0.9782238799055636	0.4415645412724023	0.8571118239170491	0.616568926514613
3.3251999999999975	0.4908379187623637	0.6584914340185727	0.9762705165024034	0.4417171599649195	0.8569827902935018	0.6178943051745257
3.3351999999999977	0.4940263828610794	0.6591228735694546	0.9742669057703242	0.4418620190306254	0.856817383655546	0.619206859915224
3.3451999999999975	0.4972127856044627	0.6597495218284155	0.9722176840556654	0.4419988570787905	0.8566154866869515	0.6205052955069144
3.3551999999999973	0.500393957562557	0.6603709975636949	0.9701274828220336	0.4421274036970599	0.856377109859926	0.6217883274681262
3.3651999999999975	0.5035667451753105	0.6609869157182594	0.968000918259716	0.4422473818020823	0.8561023895993052	0.6230546861228026
3.3751999999999973	0.5067280178929406	0.6615968890380064	0.965842580964486	0.442358510058118	0.8557915860257553	0.6243031207425179
3.3851999999999975	0.5098746753232831	0.6622005296945589	0.9636570257060566	0.4424605053513392	0.8554450802968993	0.6255324037500064
3.3951999999999973	0.5130036543633454	0.6627974509026346	0.961448761311018	0.4425530853064232	0.8550633715644125	0.6267413349581558
3.4051999999999976	0.5161119362912062	0.663387268530928	0.9592222406894478	0.4426359708314706	0.8546470735640354	0.6279287458163042
3.4151999999999973	0.5191965537933303	0.6639696027043673	0.9569818510376794	0.4427088886765903	0.854196910855428	0.6290935036340332
3.4251999999999976	0.5222545979012074	0.6645440793951052	0.9547319042518546	0.4427715739910154	0.8537137147289748	0.6302345157513195
3.4351999999999974	0.5252832248100837	0.665110331998863	0.952476627588015	0.442823772863318	0.8531984187979517	0.6313507336229804
3.4451999999999976	0.528279662551526	0.6656680028927106	0.950220154604879	0.4428652448289775	0.8526520542949346	0.6324411567852575
3.4551999999999974	0.531241217490824	0.6662167449689846	0.9479665164248084	0.4428957653293178	0.8520757450914186	0.6335048366733091
3.4651999999999976	0.5341652806199881	0.6667562231385772	0.9457196333470512	0.4429151281055713	0.8514707024586119	0.6345408802596879
3.4751999999999974	0.5370493336169556	0.6672861157946753	0.9434833068455768	0.4429231475115438	0.8508382195858591	0.6355484534851216
3.4851999999999976	0.5398909546422453	0.6678061162263675	0.9412612119813362	0.4429196607284003	0.850179665871676	0.636526784453339
3.4951999999999974	0.542687823845015	0.6683159339698503	0.9390568902560968	0.4429045298649572	0.8494964810010367	0.6374751663620136
3.505199999999997	0.5454377285515292	0.6688152960841148	0.9368737429320314	0.4428776439269533	0.8487901688221777	0.638392960142429
3.5151999999999974	0.5481385681105744	0.6693039483376447	0.9347150248381382	0.4428389206388974	0.8480622910375587	0.6392795967825302
